<?xml version="1.0" encoding="UTF-8"?>
<svg width="93px" height="93px" viewBox="0 0 93 93" version="1.1" xmlns="http://www.w3.org/2000/svg" xmlns:xlink="http://www.w3.org/1999/xlink">
    <!-- Generator: Sketch 61.2 (89653) - https://sketch.com -->
    <title>read</title>
    <desc>Created with Sketch.</desc>
    <g id="WIREFRAME" stroke="currentColor" stroke-width="1" fill="currentColor" fill-rule="evenodd">
        <g id="DEDO_V02.2_Cloturé" transform="translate(-662.000000, -275.000000)">
            <g id="Group-2" transform="translate(153.000000, 275.000000)">
                <g id="read" transform="translate(509.000000, 0.000000)">
                    <path d="M90.2753906,0 L20.2347656,0 C18.7300547,0 17.5101562,1.21989844 17.5101562,2.72460938 L17.5101562,37.3925391 C7.219125,41.8481836 0,52.101252 0,64.0101563 C0,79.9952578 13.0047422,93 28.9898437,93 C44.9749453,93 57.9798691,79.9952578 57.9798691,64.0101563 C57.9798691,61.942541 57.7606289,59.9256035 57.3472148,57.9795059 L90.2753906,57.9795059 C91.7801016,57.9795059 93,56.7596074 93,55.2548965 L93,2.72460938 C93,1.21989844 91.7801016,0 90.2753906,0 Z M82.3471406,5.44921875 L55.2552598,25.5944355 L28.1631973,5.44921875 L82.3471406,5.44921875 Z M28.9898438,87.5507813 C16.0094414,87.5507813 5.44921875,76.9905586 5.44921875,64.0101563 C5.44921875,51.0297539 16.0094414,40.4695313 28.9898438,40.4695313 C41.9702461,40.4695313 52.5306504,51.0297539 52.5306504,64.0101563 C52.5306504,76.9905586 41.9702461,87.5507813 28.9898438,87.5507813 Z M87.5507813,52.5302871 L55.6076426,52.5302871 C51.151998,42.2392559 40.8989297,35.0204941 28.9900254,35.0204941 C26.9225918,35.0204941 24.9056543,35.2397344 22.9595566,35.6531484 L22.9595566,8.37036328 L53.6295762,31.176252 C54.1121953,31.5351738 54.6838184,31.7144531 55.2554414,31.7144531 C55.8270645,31.7144531 56.3986875,31.5351738 56.8813066,31.176252 L87.5507813,8.37036328 L87.5507813,52.5302871 Z" id="Shape" fill-rule="nonzero"></path>
                    <g id="plus" transform="translate(29.000000, 65.000000) rotate(-315.000000) translate(-29.000000, -65.000000) translate(19.000000, 55.000000)" stroke="#FF4646" stroke-linecap="round" stroke-linejoin="round" stroke-width="4">
                        <line x1="10" y1="0" x2="10" y2="20" id="Shape"></line>
                        <line x1="0" y1="10" x2="20" y2="10" id="Shape"></line>
                    </g>
                </g>
            </g>
        </g>
    </g>
</svg>
