<?xml version="1.0" encoding="utf-8"?>
<!-- Generator: Adobe Illustrator 22.0.0, SVG Export Plug-In . SVG Version: 6.00 Build 0)  -->
<svg version="1.1" id="Layer_1" xmlns="http://www.w3.org/2000/svg" xmlns:xlink="http://www.w3.org/1999/xlink" x="0px" y="0px"
	 viewBox="0 0 20 20" style="enable-background:new 0 0 20 20;" xml:space="preserve" fill="currentColor">
<path d="M12,16.2h1.1c0.2,0,0.5-0.2,0.5-0.5V7.4c0-0.2-0.2-0.5-0.5-0.5H12c-0.2,0-0.5,0.2-0.5,0.5v8.5C11.4,16,11.6,16.2,12,16.2z
	 M19.2,3.1h-3.6l-1.5-2.2C13.8,0.4,13,0,12.2,0H7.8C7,0,6.2,0.4,5.9,0.9L4.4,3.1H0.8C0.4,3.1,0,3.4,0,3.8v0.6C0,4.8,0.4,5,0.8,5h0.8
	v13.1c0,1,1,1.9,2.1,1.9l0,0h12.9c1.1,0,2.1-0.9,2.1-1.9l0,0V5h0.8C19.6,5,20,4.8,20,4.4V3.8C20,3.4,19.6,3.1,19.2,3.1z M7.6,2
	c0-0.1,0.1-0.1,0.2-0.1h4.3c0.1,0,0.1,0,0.2,0.1l0.8,1.1H6.9L7.6,2z M16.4,18.1H3.6V5h12.9v13.1H16.4z M7,16.2h1.1
	c0.2,0,0.5-0.2,0.5-0.5V7.4c0-0.2-0.2-0.5-0.5-0.5H7c-0.2,0-0.5,0.2-0.5,0.5v8.5C6.4,16,6.6,16.2,7,16.2z"/>
</svg>
